<?xml version="1.0" encoding="UTF-8"?>
<!DOCTYPE svg PUBLIC "-//W3C//DTD SVG 1.1//EN" "http://www.w3.org/Graphics/SVG/1.1/DTD/svg11.dtd">
<!-- Creator: CorelDRAW X7 -->
<svg xmlns="http://www.w3.org/2000/svg" xml:space="preserve" width="1.93627in" height="1.95516in" version="1.1" style="shape-rendering:geometricPrecision; text-rendering:geometricPrecision; image-rendering:optimizeQuality; fill-rule:evenodd; clip-rule:evenodd"
viewBox="0 0 500 504"
 xmlns:xlink="http://www.w3.org/1999/xlink">
 <defs>
  <style type="text/css">
   <![CDATA[
    .str0 {stroke:#3D82F9;stroke-width:3.4401}
    .fil0 {fill:white}
    .fil1 {fill:#3D82F9;fill-rule:nonzero}
    .fil2 {fill:#4AB647;fill-rule:nonzero}
    .fil3 {fill:#E43836;fill-rule:nonzero}
    .fil4 {fill:#FDD20A;fill-rule:nonzero}
   ]]>
  </style>
 </defs>
 <g id="Layer_x0020_1">
  <metadata id="CorelCorpID_0Corel-Layer"/>
  <rect class="fil0 str0" x="2" y="2" width="496" height="501"/>
  <path class="fil1" d="M121 62l-19 3c0,-4 1,-7 1,-10 0,-17 -10,-25 -31,-25 -16,0 -24,6 -24,17 0,9 9,17 27,23 35,12 52,30 52,54 0,14 -5,25 -15,33 -9,9 -22,13 -38,13 -36,0 -54,-14 -54,-42 0,-3 1,-5 1,-9l20 -4c-1,6 -2,11 -2,16 0,18 10,27 30,27 17,0 25,-6 25,-20 0,-9 -10,-18 -29,-25 -29,-11 -43,-28 -43,-51 0,-13 5,-24 14,-32 10,-8 22,-12 38,-12 31,0 47,15 47,44z"/>
  <path class="fil1" d="M91 182l36 147 -37 0 -8 -32 -39 0 -8 32 -15 0 38 -147 33 0zm-44 100l31 0 -15 -65 -16 65z"/>
  <polygon class="fil1" points="127,342 127,356 68,356 68,405 118,405 118,420 68,420 68,488 20,488 20,342 "/>
  <path class="fil2" d="M191 119l11 5 0 4c0,28 -10,42 -30,42 -24,0 -36,-19 -36,-55 0,-18 4,-32 11,-43 7,-11 16,-16 28,-16 17,0 25,11 25,34l-12 9 0 -10c0,-16 -4,-24 -11,-24 -9,0 -13,16 -13,46 0,19 1,32 3,39 1,7 5,10 10,10 10,0 15,-9 15,-28 0,-3 0,-7 -1,-13z"/>
  <path id="1" class="fil2" d="M211 167l0 -146c8,0 17,-1 26,-3l0 60c6,-15 14,-22 24,-22 13,0 19,8 19,25l0 86 -26 0 0 -82c0,-6 -2,-10 -5,-10 -3,0 -5,4 -8,13 -2,7 -4,16 -4,25l0 54 -26 0z"/>
  <path id="2" class="fil2" d="M327 56c24,0 36,19 36,57 0,38 -12,57 -36,57 -24,0 -36,-19 -36,-57 0,-38 12,-57 36,-57zm0 10c-6,0 -9,15 -9,47 0,31 3,47 9,47 6,0 9,-16 9,-47 0,-32 -3,-47 -9,-47z"/>
  <path id="3" class="fil2" d="M406 56c24,0 36,19 36,57 0,38 -12,57 -36,57 -24,0 -36,-19 -36,-57 0,-38 12,-57 36,-57zm0 10c-5,0 -8,15 -8,47 0,31 3,47 8,47 6,0 9,-16 9,-47 0,-32 -3,-47 -9,-47z"/>
  <path id="4" class="fil2" d="M479 18l0 149 -26 0 0 -146c7,0 16,-1 26,-3z"/>
  <path class="fil3" d="M241 260l-36 0c1,-4 2,-8 3,-10 1,-3 2,-5 2,-8 0,-4 -2,-6 -7,-6 -3,0 -6,3 -9,9 -3,6 -5,12 -5,19l0 65 -53 0 0 -109 11 0c12,0 26,-1 42,-2l0 17c9,-11 19,-17 32,-17 17,0 25,7 25,20 0,4 -1,8 -2,13 -1,2 -2,5 -3,9z"/>
  <path id="1" class="fil3" d="M342 221l0 12 -24 0 0 76c0,5 2,7 7,7 3,0 4,-1 5,-4l15 1c-4,11 -17,17 -40,17 -26,0 -39,-9 -39,-25l0 -72 -18 0 0 -12 18 0 0 -19c18,-4 35,-10 52,-17l0 36 24 0z"/>
  <path id="2" class="fil3" d="M473 248l-26 3c0,-16 -10,-24 -30,-24 -13,0 -19,4 -19,12 0,5 11,11 32,18 33,10 49,22 49,38 0,24 -20,36 -62,36 -45,0 -67,-12 -67,-36l28 -5c-1,3 -1,5 -1,7 0,6 4,12 11,17 7,4 15,7 25,7 13,0 19,-4 19,-12 0,-6 -10,-12 -31,-18 -31,-10 -46,-23 -46,-38 0,-10 5,-19 17,-25 12,-7 28,-10 46,-10 33,0 51,10 55,30z"/>
  <path class="fil4" d="M238 377l0 111 -39 0 0 -17c-9,13 -20,19 -34,19 -19,0 -29,-9 -29,-28l0 -82c13,-1 26,-2 39,-3l0 84c0,7 2,11 7,11 11,0 17,-12 17,-38l0 -54c13,-1 26,-2 39,-3z"/>
  <path id="1" class="fil4" d="M361 488l-38 0 0 -79c0,-8 -3,-13 -7,-13 -5,0 -9,4 -12,10 -3,7 -5,14 -5,23l0 59 -39 0 0 -108c13,0 26,-1 39,-3l0 20c10,-13 21,-20 35,-20 18,0 27,9 27,28l0 83z"/>
  <path id="2" class="fil4" d="M479 339l0 149 -38 0 0 -9c-7,8 -16,12 -27,12 -24,0 -36,-19 -36,-56 0,-39 13,-58 39,-58 10,0 18,4 24,13l0 -48c11,0 24,-1 38,-3zm-50 54c-6,0 -10,6 -10,18l0 23 0 21c0,13 4,20 11,20 7,0 11,-7 11,-20l0 -26 0 -18c-2,-12 -5,-18 -12,-18z"/>
 </g>
</svg>
