<?xml version="1.0" encoding="UTF-8"?>
<!DOCTYPE svg PUBLIC "-//W3C//DTD SVG 1.1//EN" "http://www.w3.org/Graphics/SVG/1.1/DTD/svg11.dtd">
<!-- Creator: CorelDRAW X7 -->
<svg xmlns="http://www.w3.org/2000/svg" xml:space="preserve" width="5.53827in" height="0.587638in" version="1.1" style="shape-rendering:geometricPrecision; text-rendering:geometricPrecision; image-rendering:optimizeQuality; fill-rule:evenodd; clip-rule:evenodd"
viewBox="0 0 4825 512"
 xmlns:xlink="http://www.w3.org/1999/xlink">
 <defs>
  <style type="text/css">
   <![CDATA[
    .fil0 {fill:#3D82F9;fill-rule:nonzero}
    .fil1 {fill:#4AB647;fill-rule:nonzero}
    .fil2 {fill:#E43836;fill-rule:nonzero}
    .fil3 {fill:#FDD20A;fill-rule:nonzero}
   ]]>
  </style>
 </defs>
 <g id="Layer_x0020_1">
  <metadata id="CorelCorpID_0Corel-Layer"/>
  <g id="_914863489776">
   <path class="fil0" d="M339 147l-65 12c3,-13 4,-24 4,-33 0,-58 -34,-87 -102,-87 -54,0 -81,20 -81,60 0,29 30,55 90,76 117,41 175,102 175,182 0,46 -17,84 -49,112 -33,29 -77,43 -131,43 -120,0 -180,-47 -180,-142 0,-8 1,-17 2,-29l68 -15c-5,21 -8,39 -8,55 0,61 34,92 103,92 56,0 83,-22 83,-67 0,-33 -33,-61 -99,-86 -95,-36 -143,-93 -143,-172 0,-44 16,-80 48,-107 32,-27 73,-41 125,-41 107,0 160,49 160,147z"/>
   <path class="fil1" d="M577 340l37 17 0 15c0,93 -34,139 -102,139 -80,0 -121,-61 -121,-183 0,-61 12,-109 35,-146 24,-36 55,-54 95,-54 57,0 85,38 85,115l-41 30 0 -35c0,-52 -12,-78 -35,-78 -31,0 -47,51 -47,154 0,63 3,106 10,130 7,24 19,35 37,35 33,0 50,-32 50,-95 0,-9 -1,-24 -3,-44z"/>
   <path id="1" class="fil1" d="M644 503l0 -495c27,0 56,-2 89,-8l0 201c19,-49 46,-73 81,-73 41,0 61,28 61,83l0 292 -88 0 0 -277c0,-22 -5,-32 -14,-32 -10,0 -19,13 -27,40 -9,27 -13,56 -13,87l0 182 -89 0z"/>
   <path id="2" class="fil1" d="M1035 128c81,0 121,64 121,192 0,127 -40,191 -121,191 -81,0 -122,-64 -122,-191 0,-128 41,-192 122,-192zm0 32c-20,0 -30,53 -30,160 0,106 10,159 30,159 20,0 29,-53 29,-159 0,-107 -9,-160 -29,-160z"/>
   <path id="3" class="fil1" d="M1304 128c81,0 121,64 121,192 0,127 -40,191 -121,191 -81,0 -122,-64 -122,-191 0,-128 41,-192 122,-192zm-1 32c-19,0 -29,53 -29,160 0,106 10,159 29,159 20,0 30,-53 30,-159 0,-107 -10,-160 -30,-160z"/>
   <path id="4" class="fil1" d="M1550 1l0 502 -88 0 0 -495c24,0 54,-2 88,-7z"/>
  </g>
  <g id="_914863491888">
   <path class="fil0" d="M1884 8l121 495 -127 0 -25 -107 -131 0 -28 107 -49 0 128 -495 111 0zm-150 338l107 0 -51 -219 -56 219z"/>
   <path class="fil2" d="M2390 271l-123 0c5,-14 8,-25 11,-32 5,-10 7,-19 7,-27 0,-15 -8,-23 -22,-23 -12,0 -23,10 -33,31 -10,20 -15,42 -15,65l0 218 -179 0 0 -365 35 0c41,0 89,-3 144,-10l0 61c29,-40 64,-61 106,-61 57,0 86,24 86,71 0,12 -3,26 -8,42 -2,7 -5,17 -9,30z"/>
   <path id="1" class="fil2" d="M2730 139l0 41 -79 0 0 258c0,16 7,24 21,24 10,0 16,-5 18,-16l51 4c-14,38 -59,57 -134,57 -89,0 -134,-28 -134,-85l0 -242 -59 0 0 -41 59 0 0 -65c61,-12 121,-30 178,-54l0 119 79 0z"/>
   <path id="2" class="fil2" d="M3173 232l-87 11c0,-55 -34,-82 -103,-82 -42,0 -63,13 -63,38 0,19 36,40 108,61 111,34 167,77 167,128 0,83 -71,124 -212,124 -149,0 -224,-41 -224,-124l92 -14c-1,9 -2,16 -2,23 0,21 12,40 36,56 24,15 53,23 85,23 43,0 65,-13 65,-40 0,-18 -35,-38 -105,-60 -104,-34 -157,-76 -157,-129 0,-34 20,-63 61,-85 40,-22 91,-33 154,-33 112,0 174,34 185,103z"/>
  </g>
  <g id="_914863491824">
   <polygon class="fil0" points="3635,9 3635,59 3435,59 3435,224 3605,224 3605,274 3435,274 3435,504 3275,504 3275,9 "/>
   <path class="fil3" d="M4010 129l0 375 -131 0 0 -58c-30,43 -69,65 -116,65 -64,0 -96,-32 -96,-94l0 -278c44,-2 87,-5 131,-10l0 284c0,25 7,37 22,37 40,0 59,-43 59,-127l0 -184c44,-2 88,-5 131,-10z"/>
   <path id="1" class="fil3" d="M4427 504l-131 0 0 -268c0,-28 -8,-42 -23,-42 -16,0 -29,11 -40,33 -12,22 -17,47 -17,77l0 200 -131 0 0 -366c45,0 88,-3 131,-9l0 68c32,-45 72,-68 119,-68 61,0 92,31 92,94l0 281z"/>
   <path id="2" class="fil3" d="M4825 1l0 503 -131 0 0 -32c-22,27 -51,40 -88,40 -81,0 -122,-63 -122,-189 0,-130 43,-195 129,-195 34,0 61,16 81,46l0 -165c40,0 84,-3 131,-8zm-169 181c-22,0 -33,20 -33,61l-3 78 1 70c0,45 13,68 38,68 24,0 36,-23 36,-67l2 -89 -3 -61c-4,-40 -17,-60 -38,-60z"/>
  </g>
 </g>
</svg>
